# xmcd CD database file generated by LOLA_Freedb v0.9beta0
#
# Track frame offsets:
#      150
#      11920
#      24590
#      36192
#      47857
#      60795
#      73205
#      84755
#      97332
#      109627
#      121735
#      132912
#      147595
#      158482
#      170740
#      182352
#
# Disc length: 2587 seconds
#
# Revision: 1
# Processed by: cddbd v1.5.2PL0 Copyright (c) Steve Scherf et al.
# Submitted via: LOLA_Freedb v0.9beta0
#
DISCID=d40a1910
DTITLE=Jimmy Red - High and Lonesome
DYEAR=1991
DGENRE=Blues
TTITLE0=Jimmy Red - SHE DON´T WANT ME NO MORE
TTITLE1=Jimmy Red - HIGH AND LONESOME
TTITLE2=Jimmy Red - I´M GONNA RUIN YOU
TTITLE3=Jimmy Red - PLEASE DON´T
TTITLE4=Jimmy Red - YOU UPSET MY MIND
TTITLE5=Jimmy Red - JIMMIES BOOGIE
TTITLE6=Jimmy Red - BABY DON´T SAY THAT NO MORE
TTITLE7=Jimmy Red - I DON´T GO FOR THAT
TTITLE8=Jimmy Red - I LOVE YOU BABY
TTITLE9=Jimmy Red - HONEY DON´T LET ME GO
TTITLE10=Jimmy Red - IT´S YOU BABY
TTITLE11=Jimmy Red - HONEY,WHERE YOU GOINGPRETTY THING
TTITLE12=Jimmy Red - YOU KNOW I LOVE YOU
TTITLE13=Jimmy Red - PRETTY THING
TTITLE14=Jimmy Red - YOU GONNA NEED MY HELP
TTITLE15=Jimmy Red - SUGAR SUGAR
EXTD=High and Lonesome
EXTT0=
EXTT1=
EXTT2=
EXTT3=
EXTT4=
EXTT5=
EXTT6=
EXTT7=
EXTT8=
EXTT9=
EXTT10=
EXTT11=
EXTT12=
EXTT13=
EXTT14=
EXTT15=
PLAYORDER=
